# xmcd
#
# Track frame offsets:
#	150
#	13301
#	29207
#	41576
#	53351
#	70420
#	82508
#	94015
#	108351
#	119863
#
# Disc length: 1789 seconds
#
# Revision: 4
# Processed by: cddbd v1.5.1PL2 Copyright (c) Steve Scherf et al.
# Submitted via: audiograbber 1.83.01
#
DISCID=8106fb0a
DTITLE=Various Artist - Country's Greatest Hits Disc 3
DYEAR=2001
DGENRE=Country
TTITLE0=Lynn Anderson - Rose Garden
TTITLE1=Johnny Lee - Lookin' For Love
TTITLE2=Charlie Rich - Behind Closed Doors
TTITLE3=Donna Fargo - The Happiest Girl in the Whole U.S.A.
TTITLE4=Ray Price - For the Good Times
TTITLE5=Johnny Paycheck - Take This Job and Shove It
TTITLE6=Sammi Smith - Help Me Make It Through the Night
TTITLE7=T. Graham Brown - Darlene
TTITLE8=Freddy Fender - Before the Next Teardrop Falls
TTITLE9=Lee Greenwood - God Bless the U.S.A.
EXTD=
EXTT0=
EXTT1=
EXTT2=
EXTT3=
EXTT4=
EXTT5=
EXTT6=
EXTT7=
EXTT8=
EXTT9=
PLAYORDER=
